<?xml version="1.0" encoding="UTF-8"?>
<svg width="1440px" height="1126px" viewBox="0 0 1440 1126" version="1.1" xmlns="http://www.w3.org/2000/svg" xmlns:xlink="http://www.w3.org/1999/xlink">
    <!-- Generator: Sketch 49 (51002) - http://www.bohemiancoding.com/sketch -->
    <title>Path 3</title>
    <desc>Created with Sketch.</desc>
    <defs></defs>
    <g id="Page-1" stroke="none" stroke-width="1" fill="none" fill-rule="evenodd">
        <g id="1-вариант" transform="translate(0.000000, -562.000000)" fill="#FFFFFF">
            <path d="M-350.188989,1427.27913 C-336.540816,1383.24199 -304.762531,1345.70364 -254.854132,1314.66408 C-179.991533,1268.10474 -57.9264128,1302.90771 38.1057983,1255.17058 C134.138009,1207.43344 143.908637,1055.69333 288.093044,987.87941 C432.277452,920.065488 505.761878,1019.45037 646.174444,975.17779 C786.58701,930.905208 786.170501,873.297333 889.027046,828.226906 C991.883591,783.156479 1160.13402,832.985778 1254.3527,791.345239 C1348.57138,749.704701 1349.94566,622.608207 1411.67005,577.979696 C1433.97808,561.850341 1467.02946,556.140916 1486.39059,536.177844 C1499.29801,522.869129 1506.76287,622.343972 1508.78516,834.602372 C1542.40495,959.100775 1542.40495,1163.84243 1508.78516,1448.82734 L1508.78516,1749 L1508.78516,1687.63168 L-377,1687.63168 L-350.188989,1427.27913 Z" id="Path-3"></path>
        </g>
    </g>
</svg>